<mxfile host="app.diagrams.net" agent="Mozilla/5.0 (X11; Linux x86_64) AppleWebKit/537.36 (KHTML, like Gecko) Chrome/112.0.0.0 YaBrowser/23.5.1.667 Yowser/2.5 Safari/537.36" version="24.7.14">
  <diagram name="Page-1" id="-H_mtQnk-PTXWXPvYvuk">
    <mxGraphModel dx="1630" dy="950" grid="1" gridSize="10" guides="1" tooltips="1" connect="1" arrows="1" fold="1" page="1" pageScale="1" pageWidth="1169" pageHeight="827" math="0" shadow="0">
      <root>
        <mxCell id="0" />
        <mxCell id="1" parent="0" />
        <mxCell id="5n70RPGWsVmmaYihpaBx-13" value="" style="ellipse;whiteSpace=wrap;html=1;dashed=1;" vertex="1" parent="1">
          <mxGeometry x="45" y="250" width="125" height="170" as="geometry" />
        </mxCell>
        <mxCell id="pOd9DZaXu0o_O_ewBBWT-19" style="edgeStyle=orthogonalEdgeStyle;rounded=0;orthogonalLoop=1;jettySize=auto;html=1;entryX=1;entryY=0.5;entryDx=0;entryDy=0;" parent="1" source="pOd9DZaXu0o_O_ewBBWT-16" target="pOd9DZaXu0o_O_ewBBWT-18" edge="1">
          <mxGeometry relative="1" as="geometry">
            <Array as="points">
              <mxPoint x="565" y="110" />
            </Array>
          </mxGeometry>
        </mxCell>
        <mxCell id="pOd9DZaXu0o_O_ewBBWT-21" value="Регистрация" style="edgeLabel;html=1;align=center;verticalAlign=middle;resizable=0;points=[];" parent="pOd9DZaXu0o_O_ewBBWT-19" vertex="1" connectable="0">
          <mxGeometry x="0.1319" y="-2" relative="1" as="geometry">
            <mxPoint x="43" y="27" as="offset" />
          </mxGeometry>
        </mxCell>
        <mxCell id="pOd9DZaXu0o_O_ewBBWT-16" value="" style="rounded=0;whiteSpace=wrap;html=1;dashed=1;" parent="1" vertex="1">
          <mxGeometry x="495" y="200" width="140" height="210" as="geometry" />
        </mxCell>
        <mxCell id="GRH_sDpzJ3IdjpKB09Hd-40" value="" style="rounded=0;whiteSpace=wrap;html=1;dashed=1;" parent="1" vertex="1">
          <mxGeometry x="495" y="470" width="110" height="120" as="geometry" />
        </mxCell>
        <mxCell id="GRH_sDpzJ3IdjpKB09Hd-34" value="" style="rounded=0;whiteSpace=wrap;html=1;dashed=1;" parent="1" vertex="1">
          <mxGeometry x="825" y="320" width="250" height="140" as="geometry" />
        </mxCell>
        <mxCell id="GRH_sDpzJ3IdjpKB09Hd-35" value="&lt;span style=&quot;color: rgba(0, 0, 0, 0.85); font-family: Menlo, &amp;quot;Ubuntu Mono&amp;quot;, consolas, source-code-pro, monospace; font-size: 13px; text-align: start; white-space: pre; background-color: rgb(245, 245, 245);&quot;&gt;Replicaset 2&lt;/span&gt;" style="text;html=1;align=center;verticalAlign=middle;whiteSpace=wrap;rounded=0;" parent="1" vertex="1">
          <mxGeometry x="905" y="330" width="90" height="30" as="geometry" />
        </mxCell>
        <mxCell id="GRH_sDpzJ3IdjpKB09Hd-25" value="" style="rounded=0;whiteSpace=wrap;html=1;dashed=1;" parent="1" vertex="1">
          <mxGeometry x="825" y="160" width="250" height="140" as="geometry" />
        </mxCell>
        <mxCell id="zA23MoTUsTF4_91t8viU-2" value="MongoDB" style="shape=cylinder3;whiteSpace=wrap;html=1;boundedLbl=1;backgroundOutline=1;size=15;" parent="1" vertex="1">
          <mxGeometry x="705" y="290" width="60" height="80" as="geometry" />
        </mxCell>
        <mxCell id="zA23MoTUsTF4_91t8viU-3" value="pymongo-api" style="rounded=1;whiteSpace=wrap;html=1;" parent="1" vertex="1">
          <mxGeometry x="505" y="340" width="120" height="60" as="geometry" />
        </mxCell>
        <mxCell id="zA23MoTUsTF4_91t8viU-4" style="edgeStyle=orthogonalEdgeStyle;rounded=0;orthogonalLoop=1;jettySize=auto;html=1;entryX=0;entryY=0.5;entryDx=0;entryDy=0;entryPerimeter=0;exitX=1.007;exitY=0.81;exitDx=0;exitDy=0;exitPerimeter=0;" parent="1" source="pOd9DZaXu0o_O_ewBBWT-16" target="zA23MoTUsTF4_91t8viU-2" edge="1">
          <mxGeometry relative="1" as="geometry">
            <mxPoint x="645" y="370" as="sourcePoint" />
            <mxPoint x="705" y="370" as="targetPoint" />
          </mxGeometry>
        </mxCell>
        <mxCell id="GRH_sDpzJ3IdjpKB09Hd-1" value="MongoDB" style="shape=cylinder3;whiteSpace=wrap;html=1;boundedLbl=1;backgroundOutline=1;size=15;" parent="1" vertex="1">
          <mxGeometry x="705" y="120" width="60" height="80" as="geometry" />
        </mxCell>
        <mxCell id="GRH_sDpzJ3IdjpKB09Hd-2" value="MongoDB" style="shape=cylinder3;whiteSpace=wrap;html=1;boundedLbl=1;backgroundOutline=1;size=15;" parent="1" vertex="1">
          <mxGeometry x="845" y="210" width="60" height="80" as="geometry" />
        </mxCell>
        <mxCell id="GRH_sDpzJ3IdjpKB09Hd-3" value="MongoDB" style="shape=cylinder3;whiteSpace=wrap;html=1;boundedLbl=1;backgroundOutline=1;size=15;" parent="1" vertex="1">
          <mxGeometry x="845" y="370" width="60" height="80" as="geometry" />
        </mxCell>
        <mxCell id="GRH_sDpzJ3IdjpKB09Hd-4" value="&lt;span style=&quot;color: rgba(0, 0, 0, 0.85); font-family: Menlo, &amp;quot;Ubuntu Mono&amp;quot;, consolas, source-code-pro, monospace; text-align: start; white-space: pre; background-color: rgb(245, 245, 245);&quot;&gt;&lt;font style=&quot;font-size: 11px;&quot;&gt;configSrv&lt;/font&gt;&lt;/span&gt;" style="text;html=1;align=center;verticalAlign=middle;resizable=0;points=[];autosize=1;strokeColor=none;fillColor=none;" parent="1" vertex="1">
          <mxGeometry x="700" y="120" width="70" height="30" as="geometry" />
        </mxCell>
        <mxCell id="GRH_sDpzJ3IdjpKB09Hd-5" value="" style="endArrow=classic;startArrow=classic;html=1;rounded=0;entryX=0.5;entryY=1;entryDx=0;entryDy=0;entryPerimeter=0;" parent="1" target="GRH_sDpzJ3IdjpKB09Hd-1" edge="1">
          <mxGeometry width="50" height="50" relative="1" as="geometry">
            <mxPoint x="735" y="290" as="sourcePoint" />
            <mxPoint x="785" y="240" as="targetPoint" />
          </mxGeometry>
        </mxCell>
        <mxCell id="GRH_sDpzJ3IdjpKB09Hd-6" value="" style="endArrow=classic;startArrow=classic;html=1;rounded=0;entryX=0;entryY=0.5;entryDx=0;entryDy=0;entryPerimeter=0;exitX=1.014;exitY=0.405;exitDx=0;exitDy=0;exitPerimeter=0;" parent="1" source="zA23MoTUsTF4_91t8viU-2" target="GRH_sDpzJ3IdjpKB09Hd-2" edge="1">
          <mxGeometry width="50" height="50" relative="1" as="geometry">
            <mxPoint x="805" y="350" as="sourcePoint" />
            <mxPoint x="805" y="260" as="targetPoint" />
          </mxGeometry>
        </mxCell>
        <mxCell id="GRH_sDpzJ3IdjpKB09Hd-7" value="" style="endArrow=classic;startArrow=classic;html=1;rounded=0;entryX=0;entryY=0.5;entryDx=0;entryDy=0;entryPerimeter=0;exitX=1;exitY=0;exitDx=0;exitDy=52.5;exitPerimeter=0;" parent="1" source="zA23MoTUsTF4_91t8viU-2" target="GRH_sDpzJ3IdjpKB09Hd-3" edge="1">
          <mxGeometry width="50" height="50" relative="1" as="geometry">
            <mxPoint x="765" y="330" as="sourcePoint" />
            <mxPoint x="870" y="360" as="targetPoint" />
          </mxGeometry>
        </mxCell>
        <mxCell id="GRH_sDpzJ3IdjpKB09Hd-9" value="&lt;span style=&quot;color: rgba(0, 0, 0, 0.85); font-family: Menlo, &amp;quot;Ubuntu Mono&amp;quot;, consolas, source-code-pro, monospace; text-align: start; white-space: pre; background-color: rgb(245, 245, 245);&quot;&gt;&lt;font style=&quot;font-size: 13px;&quot;&gt;shard1&lt;/font&gt;&lt;/span&gt;" style="text;html=1;align=center;verticalAlign=middle;resizable=0;points=[];autosize=1;strokeColor=none;fillColor=none;" parent="1" vertex="1">
          <mxGeometry x="845" y="210" width="60" height="30" as="geometry" />
        </mxCell>
        <mxCell id="GRH_sDpzJ3IdjpKB09Hd-10" value="&lt;span style=&quot;color: rgba(0, 0, 0, 0.85); font-family: Menlo, &amp;quot;Ubuntu Mono&amp;quot;, consolas, source-code-pro, monospace; text-align: start; white-space: pre; background-color: rgb(245, 245, 245);&quot;&gt;&lt;font style=&quot;font-size: 13px;&quot;&gt;shard2&lt;/font&gt;&lt;/span&gt;" style="text;html=1;align=center;verticalAlign=middle;resizable=0;points=[];autosize=1;strokeColor=none;fillColor=none;" parent="1" vertex="1">
          <mxGeometry x="845" y="370" width="60" height="30" as="geometry" />
        </mxCell>
        <mxCell id="GRH_sDpzJ3IdjpKB09Hd-11" value="&lt;span style=&quot;color: rgba(0, 0, 0, 0.85); font-family: Menlo, &amp;quot;Ubuntu Mono&amp;quot;, consolas, source-code-pro, monospace; text-align: start; white-space: pre; background-color: rgb(245, 245, 245);&quot;&gt;&lt;font style=&quot;font-size: 13px;&quot;&gt;router&lt;/font&gt;&lt;/span&gt;" style="text;html=1;align=center;verticalAlign=middle;resizable=0;points=[];autosize=1;strokeColor=none;fillColor=none;" parent="1" vertex="1">
          <mxGeometry x="705" y="290" width="60" height="30" as="geometry" />
        </mxCell>
        <mxCell id="GRH_sDpzJ3IdjpKB09Hd-17" value="MongoDB" style="shape=cylinder3;whiteSpace=wrap;html=1;boundedLbl=1;backgroundOutline=1;size=15;" parent="1" vertex="1">
          <mxGeometry x="920" y="210" width="60" height="80" as="geometry" />
        </mxCell>
        <mxCell id="GRH_sDpzJ3IdjpKB09Hd-18" value="&lt;span style=&quot;color: rgba(0, 0, 0, 0.85); font-family: Menlo, &amp;quot;Ubuntu Mono&amp;quot;, consolas, source-code-pro, monospace; text-align: start; white-space: pre; background-color: rgb(245, 245, 245);&quot;&gt;&lt;font style=&quot;font-size: 13px;&quot;&gt;shard1&lt;/font&gt;&lt;/span&gt;" style="text;html=1;align=center;verticalAlign=middle;resizable=0;points=[];autosize=1;strokeColor=none;fillColor=none;" parent="1" vertex="1">
          <mxGeometry x="920" y="210" width="60" height="30" as="geometry" />
        </mxCell>
        <mxCell id="GRH_sDpzJ3IdjpKB09Hd-19" value="MongoDB" style="shape=cylinder3;whiteSpace=wrap;html=1;boundedLbl=1;backgroundOutline=1;size=15;" parent="1" vertex="1">
          <mxGeometry x="995" y="210" width="60" height="80" as="geometry" />
        </mxCell>
        <mxCell id="GRH_sDpzJ3IdjpKB09Hd-20" value="&lt;span style=&quot;color: rgba(0, 0, 0, 0.85); font-family: Menlo, &amp;quot;Ubuntu Mono&amp;quot;, consolas, source-code-pro, monospace; text-align: start; white-space: pre; background-color: rgb(245, 245, 245);&quot;&gt;&lt;font style=&quot;font-size: 13px;&quot;&gt;shard1&lt;/font&gt;&lt;/span&gt;" style="text;html=1;align=center;verticalAlign=middle;resizable=0;points=[];autosize=1;strokeColor=none;fillColor=none;" parent="1" vertex="1">
          <mxGeometry x="995" y="210" width="60" height="30" as="geometry" />
        </mxCell>
        <mxCell id="GRH_sDpzJ3IdjpKB09Hd-21" value="MongoDB" style="shape=cylinder3;whiteSpace=wrap;html=1;boundedLbl=1;backgroundOutline=1;size=15;" parent="1" vertex="1">
          <mxGeometry x="920" y="370" width="60" height="80" as="geometry" />
        </mxCell>
        <mxCell id="GRH_sDpzJ3IdjpKB09Hd-22" value="&lt;span style=&quot;color: rgba(0, 0, 0, 0.85); font-family: Menlo, &amp;quot;Ubuntu Mono&amp;quot;, consolas, source-code-pro, monospace; text-align: start; white-space: pre; background-color: rgb(245, 245, 245);&quot;&gt;&lt;font style=&quot;font-size: 13px;&quot;&gt;shard2&lt;/font&gt;&lt;/span&gt;" style="text;html=1;align=center;verticalAlign=middle;resizable=0;points=[];autosize=1;strokeColor=none;fillColor=none;" parent="1" vertex="1">
          <mxGeometry x="920" y="370" width="60" height="30" as="geometry" />
        </mxCell>
        <mxCell id="GRH_sDpzJ3IdjpKB09Hd-23" value="MongoDB" style="shape=cylinder3;whiteSpace=wrap;html=1;boundedLbl=1;backgroundOutline=1;size=15;" parent="1" vertex="1">
          <mxGeometry x="995" y="370" width="60" height="80" as="geometry" />
        </mxCell>
        <mxCell id="GRH_sDpzJ3IdjpKB09Hd-24" value="&lt;span style=&quot;color: rgba(0, 0, 0, 0.85); font-family: Menlo, &amp;quot;Ubuntu Mono&amp;quot;, consolas, source-code-pro, monospace; text-align: start; white-space: pre; background-color: rgb(245, 245, 245);&quot;&gt;&lt;font style=&quot;font-size: 13px;&quot;&gt;shard2&lt;/font&gt;&lt;/span&gt;" style="text;html=1;align=center;verticalAlign=middle;resizable=0;points=[];autosize=1;strokeColor=none;fillColor=none;" parent="1" vertex="1">
          <mxGeometry x="995" y="370" width="60" height="30" as="geometry" />
        </mxCell>
        <mxCell id="GRH_sDpzJ3IdjpKB09Hd-26" value="&lt;span style=&quot;color: rgba(0, 0, 0, 0.85); font-family: Menlo, &amp;quot;Ubuntu Mono&amp;quot;, consolas, source-code-pro, monospace; font-size: 13px; text-align: start; white-space: pre; background-color: rgb(245, 245, 245);&quot;&gt;Replicaset 1&lt;/span&gt;" style="text;html=1;align=center;verticalAlign=middle;whiteSpace=wrap;rounded=0;" parent="1" vertex="1">
          <mxGeometry x="905" y="170" width="90" height="30" as="geometry" />
        </mxCell>
        <mxCell id="GRH_sDpzJ3IdjpKB09Hd-27" value="" style="endArrow=none;dashed=1;html=1;rounded=0;" parent="1" target="GRH_sDpzJ3IdjpKB09Hd-17" edge="1">
          <mxGeometry width="50" height="50" relative="1" as="geometry">
            <mxPoint x="905" y="250" as="sourcePoint" />
            <mxPoint x="955" y="200" as="targetPoint" />
          </mxGeometry>
        </mxCell>
        <mxCell id="GRH_sDpzJ3IdjpKB09Hd-31" value="" style="endArrow=none;dashed=1;html=1;rounded=0;" parent="1" edge="1">
          <mxGeometry width="50" height="50" relative="1" as="geometry">
            <mxPoint x="905" y="409.83" as="sourcePoint" />
            <mxPoint x="920" y="409.83" as="targetPoint" />
          </mxGeometry>
        </mxCell>
        <mxCell id="GRH_sDpzJ3IdjpKB09Hd-32" value="" style="endArrow=none;dashed=1;html=1;rounded=0;" parent="1" edge="1">
          <mxGeometry width="50" height="50" relative="1" as="geometry">
            <mxPoint x="980" y="409.83" as="sourcePoint" />
            <mxPoint x="995" y="409.83" as="targetPoint" />
          </mxGeometry>
        </mxCell>
        <mxCell id="GRH_sDpzJ3IdjpKB09Hd-33" value="" style="endArrow=none;dashed=1;html=1;rounded=0;" parent="1" edge="1">
          <mxGeometry width="50" height="50" relative="1" as="geometry">
            <mxPoint x="980" y="249.88" as="sourcePoint" />
            <mxPoint x="995" y="249.88" as="targetPoint" />
          </mxGeometry>
        </mxCell>
        <mxCell id="GRH_sDpzJ3IdjpKB09Hd-36" value="Redis" style="shape=cylinder3;whiteSpace=wrap;html=1;boundedLbl=1;backgroundOutline=1;size=15;" parent="1" vertex="1">
          <mxGeometry x="520" y="500" width="60" height="80" as="geometry" />
        </mxCell>
        <mxCell id="GRH_sDpzJ3IdjpKB09Hd-37" value="&lt;span style=&quot;color: rgba(0, 0, 0, 0.85); font-family: Menlo, &amp;quot;Ubuntu Mono&amp;quot;, consolas, source-code-pro, monospace; text-align: start; white-space: pre; background-color: rgb(245, 245, 245);&quot;&gt;&lt;font style=&quot;font-size: 11px;&quot;&gt;Caching&lt;/font&gt;&lt;/span&gt;" style="text;html=1;align=center;verticalAlign=middle;resizable=0;points=[];autosize=1;strokeColor=none;fillColor=none;" parent="1" vertex="1">
          <mxGeometry x="520" y="470" width="60" height="30" as="geometry" />
        </mxCell>
        <mxCell id="GRH_sDpzJ3IdjpKB09Hd-38" value="" style="endArrow=classic;startArrow=classic;html=1;rounded=0;entryX=0.5;entryY=1;entryDx=0;entryDy=0;exitX=0;exitY=0.25;exitDx=0;exitDy=0;" parent="1" source="GRH_sDpzJ3IdjpKB09Hd-40" target="pOd9DZaXu0o_O_ewBBWT-4" edge="1">
          <mxGeometry width="50" height="50" relative="1" as="geometry">
            <mxPoint x="569.71" y="490" as="sourcePoint" />
            <mxPoint x="569.71" y="400" as="targetPoint" />
          </mxGeometry>
        </mxCell>
        <mxCell id="pOd9DZaXu0o_O_ewBBWT-1" value="pymongo-api" style="rounded=1;whiteSpace=wrap;html=1;" parent="1" vertex="1">
          <mxGeometry x="505" y="260" width="120" height="60" as="geometry" />
        </mxCell>
        <mxCell id="pOd9DZaXu0o_O_ewBBWT-5" style="edgeStyle=orthogonalEdgeStyle;rounded=0;orthogonalLoop=1;jettySize=auto;html=1;exitX=1;exitY=0.5;exitDx=0;exitDy=0;" parent="1" source="pOd9DZaXu0o_O_ewBBWT-4" edge="1">
          <mxGeometry relative="1" as="geometry">
            <mxPoint x="495" y="290" as="targetPoint" />
          </mxGeometry>
        </mxCell>
        <mxCell id="pOd9DZaXu0o_O_ewBBWT-6" style="edgeStyle=orthogonalEdgeStyle;rounded=0;orthogonalLoop=1;jettySize=auto;html=1;exitX=1;exitY=0.5;exitDx=0;exitDy=0;entryX=0;entryY=0.8;entryDx=0;entryDy=0;entryPerimeter=0;" parent="1" source="pOd9DZaXu0o_O_ewBBWT-4" target="pOd9DZaXu0o_O_ewBBWT-16" edge="1">
          <mxGeometry relative="1" as="geometry">
            <mxPoint x="485" y="370" as="targetPoint" />
          </mxGeometry>
        </mxCell>
        <mxCell id="pOd9DZaXu0o_O_ewBBWT-20" style="edgeStyle=orthogonalEdgeStyle;rounded=0;orthogonalLoop=1;jettySize=auto;html=1;entryX=0.5;entryY=1;entryDx=0;entryDy=0;" parent="1" source="pOd9DZaXu0o_O_ewBBWT-4" target="pOd9DZaXu0o_O_ewBBWT-18" edge="1">
          <mxGeometry relative="1" as="geometry" />
        </mxCell>
        <mxCell id="pOd9DZaXu0o_O_ewBBWT-22" value="Получение списка сервисов" style="edgeLabel;html=1;align=center;verticalAlign=middle;resizable=0;points=[];" parent="pOd9DZaXu0o_O_ewBBWT-20" vertex="1" connectable="0">
          <mxGeometry x="0.0462" y="1" relative="1" as="geometry">
            <mxPoint as="offset" />
          </mxGeometry>
        </mxCell>
        <mxCell id="pOd9DZaXu0o_O_ewBBWT-4" value="API Gateway" style="rounded=1;whiteSpace=wrap;html=1;" parent="1" vertex="1">
          <mxGeometry x="305" y="270" width="110" height="120" as="geometry" />
        </mxCell>
        <mxCell id="pOd9DZaXu0o_O_ewBBWT-9" style="edgeStyle=orthogonalEdgeStyle;rounded=0;orthogonalLoop=1;jettySize=auto;html=1;entryX=0;entryY=0.5;entryDx=0;entryDy=0;entryPerimeter=0;" parent="1" target="zA23MoTUsTF4_91t8viU-2" edge="1">
          <mxGeometry relative="1" as="geometry">
            <mxPoint x="635" y="290" as="sourcePoint" />
          </mxGeometry>
        </mxCell>
        <mxCell id="pOd9DZaXu0o_O_ewBBWT-10" value="Actor" style="shape=umlActor;verticalLabelPosition=bottom;verticalAlign=top;html=1;outlineConnect=0;" parent="1" vertex="1">
          <mxGeometry x="80" y="290" width="30" height="60" as="geometry" />
        </mxCell>
        <mxCell id="pOd9DZaXu0o_O_ewBBWT-17" value="App Instances" style="text;html=1;align=center;verticalAlign=middle;whiteSpace=wrap;rounded=0;" parent="1" vertex="1">
          <mxGeometry x="535" y="210" width="60" height="30" as="geometry" />
        </mxCell>
        <mxCell id="pOd9DZaXu0o_O_ewBBWT-18" value="&lt;span style=&quot;color: rgba(0, 0, 0, 0.85); font-family: &amp;quot;YS Text&amp;quot;, Arial, Helvetica, sans-serif; text-align: start; white-space: pre-wrap; background-color: rgb(255, 255, 255);&quot;&gt;&lt;font style=&quot;font-size: 13px;&quot;&gt;Consul&lt;/font&gt;&lt;/span&gt;" style="rounded=1;whiteSpace=wrap;html=1;" parent="1" vertex="1">
          <mxGeometry x="300" y="80" width="120" height="60" as="geometry" />
        </mxCell>
        <mxCell id="pOd9DZaXu0o_O_ewBBWT-29" value="Actor" style="shape=umlActor;verticalLabelPosition=bottom;verticalAlign=top;html=1;outlineConnect=0;" parent="1" vertex="1">
          <mxGeometry x="90" y="300" width="30" height="60" as="geometry" />
        </mxCell>
        <mxCell id="pOd9DZaXu0o_O_ewBBWT-30" value="Actor" style="shape=umlActor;verticalLabelPosition=bottom;verticalAlign=top;html=1;outlineConnect=0;" parent="1" vertex="1">
          <mxGeometry x="100" y="310" width="30" height="60" as="geometry" />
        </mxCell>
        <mxCell id="pOd9DZaXu0o_O_ewBBWT-33" style="edgeStyle=orthogonalEdgeStyle;rounded=0;orthogonalLoop=1;jettySize=auto;html=1;entryX=0.003;entryY=0.586;entryDx=0;entryDy=0;dashed=1;entryPerimeter=0;exitX=0.996;exitY=0.477;exitDx=0;exitDy=0;exitPerimeter=0;" parent="1" edge="1" source="5n70RPGWsVmmaYihpaBx-13">
          <mxGeometry relative="1" as="geometry">
            <mxPoint x="200" y="330" as="sourcePoint" />
            <mxPoint x="304.99999999999994" y="330.31999999999994" as="targetPoint" />
          </mxGeometry>
        </mxCell>
        <mxCell id="5n70RPGWsVmmaYihpaBx-1" value="" style="ellipse;shape=cloud;whiteSpace=wrap;html=1;dashed=1;" vertex="1" parent="1">
          <mxGeometry x="165" y="460" width="250" height="140" as="geometry" />
        </mxCell>
        <mxCell id="5n70RPGWsVmmaYihpaBx-2" value="&lt;font style=&quot;font-size: 16px;&quot;&gt;CDN Service&lt;/font&gt;" style="text;html=1;align=center;verticalAlign=middle;whiteSpace=wrap;rounded=0;" vertex="1" parent="1">
          <mxGeometry x="230" y="480" width="110" height="30" as="geometry" />
        </mxCell>
        <mxCell id="5n70RPGWsVmmaYihpaBx-4" value="" style="endArrow=classic;html=1;rounded=0;entryX=0.44;entryY=0.1;entryDx=0;entryDy=0;entryPerimeter=0;dashed=1;exitX=0.965;exitY=0.689;exitDx=0;exitDy=0;exitPerimeter=0;" edge="1" parent="1" source="5n70RPGWsVmmaYihpaBx-13" target="5n70RPGWsVmmaYihpaBx-1">
          <mxGeometry width="50" height="50" relative="1" as="geometry">
            <mxPoint x="150" y="350" as="sourcePoint" />
            <mxPoint x="200" y="320" as="targetPoint" />
          </mxGeometry>
        </mxCell>
        <mxCell id="5n70RPGWsVmmaYihpaBx-5" value="region_1" style="rounded=1;whiteSpace=wrap;html=1;" vertex="1" parent="1">
          <mxGeometry x="220" y="520" width="70" height="20" as="geometry" />
        </mxCell>
        <mxCell id="5n70RPGWsVmmaYihpaBx-6" value="region_2" style="rounded=1;whiteSpace=wrap;html=1;" vertex="1" parent="1">
          <mxGeometry x="300" y="520" width="70" height="20" as="geometry" />
        </mxCell>
        <mxCell id="5n70RPGWsVmmaYihpaBx-7" value="region_3" style="rounded=1;whiteSpace=wrap;html=1;" vertex="1" parent="1">
          <mxGeometry x="260" y="550" width="70" height="20" as="geometry" />
        </mxCell>
        <mxCell id="5n70RPGWsVmmaYihpaBx-9" value="Static&lt;div&gt;Content&lt;/div&gt;" style="shape=cylinder3;whiteSpace=wrap;html=1;boundedLbl=1;backgroundOutline=1;size=15;" vertex="1" parent="1">
          <mxGeometry x="265" y="630" width="60" height="80" as="geometry" />
        </mxCell>
        <mxCell id="5n70RPGWsVmmaYihpaBx-12" style="edgeStyle=orthogonalEdgeStyle;rounded=0;orthogonalLoop=1;jettySize=auto;html=1;entryX=0.52;entryY=0.943;entryDx=0;entryDy=0;entryPerimeter=0;" edge="1" parent="1" source="5n70RPGWsVmmaYihpaBx-9" target="5n70RPGWsVmmaYihpaBx-1">
          <mxGeometry relative="1" as="geometry" />
        </mxCell>
      </root>
    </mxGraphModel>
  </diagram>
</mxfile>
